<svg xmlns="http://www.w3.org/2000/svg" viewBox="0 0 1600 900" preserveAspectRatio="xMidYMid slice">
  <rect width="1600" height="900" fill="#1a1210"/>
  <ellipse cx="800" cy="820" rx="420" ry="70" fill="#2a1814"/>
  <path d="M620 780 L700 420 L900 420 L980 780 Z" fill="#5a3c2a"/>
  <path d="M700 420 H900 L860 300 H740 Z" fill="#6a4a32"/>
  <circle cx="800" cy="250" r="64" fill="#e8d5a3" stroke="#3d2914" stroke-width="6"/>
  <circle cx="780" cy="240" r="6" fill="#2b2218"/>
  <circle cx="822" cy="240" r="6" fill="#2b2218"/>
  <path d="M780 268 Q800 280 822 268" fill="none" stroke="#2b2218" stroke-width="3"/>
  <rect x="520" y="390" width="200" height="36" rx="8" fill="#8a6238"/>
  <rect x="880" y="390" width="200" height="36" rx="8" fill="#8a6238"/>
  <path d="M480 390 C560 220 1040 220 1120 390" fill="none" stroke="#c9a227" stroke-width="10" opacity="0.45"/>
  <ellipse cx="800" cy="160" rx="180" ry="28" fill="#6a4a2e" opacity="0.8"/>
  <rect x="640" y="120" width="320" height="44" fill="#8a6238" opacity="0.7"/>
</svg>
